<svg width="321" height="327" viewBox="0 0 321 327" fill="none" xmlns="http://www.w3.org/2000/svg">
<g clip-path="url(#clip0_2017_43)">
<path d="M297.53 213.65H231.2C231.2 213.65 231.17 213.65 231.16 213.65C226.15 213.38 223.5 212.04 221.36 209.7C220.22 208.47 219.35 207.01 218.69 205.47C216.6 200.62 215.44 195.01 215.39 190.39V124.2C215.39 111.36 204.98 100.95 192.14 100.95H135.16C132.53 101.05 130.25 101.3 124.47 101C120.42 100.79 116.04 99.34 112.74 96.87C109.59 94.51 108.12 88.99 107.22 84.7C106.25 80.07 105.79 75.34 105.79 70.6V23.03C106.31 10.41 95.9 0 83.06 0H23C10.3 0 0 10.3 0 23V89.44C0 102.23 10.46 112.69 23.25 112.69H82.69C82.94 112.69 83.22 112.73 83.47 112.73C91.59 112.9 100.49 116.19 102.5 123.85C102.73 124.72 102.81 125.63 102.81 126.53L102.7 185.43C102.54 191.12 102.22 196.51 100.44 200.89C97.53 207.63 92.26 213.92 85.5 217.07C82.41 218.55 79.03 219.32 75.61 219.32H26.67C10.01 219.32 0 229.34 0 241.69V300.48C0 314.76 11.57 326.33 25.85 326.33H90.48C103.32 326.33 112.69 318.03 112.69 305.19L111.81 242.57C111.81 241.5 111.74 240.16 111.77 238.59C111.8 236.64 111.74 235 111.83 233.06C112.02 228.85 112.24 224.36 114.52 220.07C117.51 214.45 125.69 213.96 130.13 213.66H187.1C194.16 213.66 200.79 217.29 204.39 223.37C206.59 227.75 207.83 232.14 208.08 236.91V303.1C208.08 315.94 218.49 326.35 231.33 326.35H297.52C310.37 326.35 320.78 315.94 320.78 303.09V236.91C320.78 224.07 310.37 213.66 297.53 213.66V213.65ZM105.01 139.17C104.98 139.27 104.96 139.31 104.94 139.29C104.96 139.25 104.99 139.21 105.01 139.17ZM73.93 220.09C73.93 220.09 73.98 220.11 74.01 220.12C73.94 220.12 73.91 220.11 73.93 220.09ZM208.47 246.84C208.47 246.84 208.51 246.79 208.53 246.77C208.5 246.84 208.48 246.86 208.47 246.84Z" fill="#121111"/>
</g>
<defs>
<clipPath id="clip0_2017_43">
<rect width="320.78" height="326.34" fill="white"/>
</clipPath>
</defs>
</svg>
